<?xml version="1.0" standalone="no"?>
<!DOCTYPE svg PUBLIC "-//W3C//DTD SVG 20010904//EN"
 "http://www.w3.org/TR/2001/REC-SVG-20010904/DTD/svg10.dtd">
<svg version="1.0" xmlns="http://www.w3.org/2000/svg"
 width="260.000000pt" height="260.000000pt" viewBox="0 0 260.000000 260.000000"
 preserveAspectRatio="xMidYMid meet">
<metadata>
Created by potrace 1.11, written by Peter Selinger 2001-2013
</metadata>
<g transform="translate(0.000000,260.000000) scale(0.100000,-0.100000)"
fill="#000000" stroke="none">
<path d="M0 1300 l0 -1300 1300 0 1300 0 0 1300 0 1300 -1300 0 -1300 0 0
-1300z m1470 825 c81 -17 216 -68 242 -92 17 -15 18 -46 18 -384 0 -228 -4
-388 -11 -421 -32 -155 -156 -290 -302 -326 -96 -25 -207 -13 -297 31 -116 56
-229 224 -230 340 l0 27 105 0 105 0 6 -27 c17 -80 73 -143 141 -162 104 -29
196 10 246 103 21 40 22 50 22 359 l0 319 -40 14 c-66 24 -274 21 -355 -6
-255 -84 -432 -325 -433 -590 -1 -169 61 -319 181 -439 85 -85 140 -120 252
-158 99 -34 269 -36 367 -5 134 43 250 127 327 236 105 151 116 204 116 588 0
182 4 308 9 308 16 0 69 -71 105 -140 68 -130 96 -248 96 -402 0 -195 -69
-387 -185 -517 -124 -139 -225 -211 -362 -260 -307 -109 -629 -39 -862 188
-65 63 -171 203 -171 225 0 4 -8 25 -19 49 -33 74 -40 100 -57 197 -52 307 92
637 356 817 72 48 189 100 270 118 41 9 80 18 85 20 30 10 214 3 275 -10z"/>
</g>
</svg>
