<svg xmlns="http://www.w3.org/2000/svg" viewBox="0 0 599.8 599.94"><g data-name="Layer 2"><path d="M287.3.44c-18.9.8-20.6 1-49.9 6-2.7.5-6.6 1.4-8.5 1.9s-6.2 1.7-9.5 2.7c-9.3 2.5-26.9 8.5-28 9.5a4 4 0 01-2.5.9 23.72 23.72 0 00-5.5 2 27.11 27.11 0 01-5.2 2c-.7 0-1.3.4-1.3 1a1.1 1.1 0 01-1.1 1c-1.5 0-16.2 7-16.9 8.1a7.38 7.38 0 01-3.3 1.4c-1.5.4-2.7 1.1-2.7 1.6s-.6.9-1.4.9a5.34 5.34 0 00-2.8 1.2 30.91 30.91 0 01-7.8 5 17.24 17.24 0 00-3 1.8 40.14 40.14 0 01-4.5 3 35.74 35.74 0 00-5.4 3.8 46.07 46.07 0 01-5.5 3.9 29.36 29.36 0 00-5.1 3.7c-.5.6-4.1 3.6-8 6.6-9 7-34.4 32.5-41.5 41.5-3 3.8-6.5 8.1-7.7 9.5a11.54 11.54 0 00-2.3 3.1 11 11 0 01-2 3 54.62 54.62 0 00-6 8.4 18.57 18.57 0 01-3.2 4.3 1.87 1.87 0 00-.8 1.5c0 .7-1.6 3.4-3.5 6.1s-3.5 5.5-3.5 6.2a1.87 1.87 0 01-.7 1.6c-1.2.5-11.3 20.6-11.3 22.3 0 .8-.4 1.5-1 1.5a1.2 1.2 0 00-1 1.2 25 25 0 01-2 5.3 23.72 23.72 0 00-2 5.5 4 4 0 01-.9 2.5c-.7.9-6.4 17.1-9.1 26-.8 2.9-4.1 16.5-6 25.5-1.2 5.2-2.6 15.7-4 28.5-1.2 11.1-1.2 47.4 0 57.5 1.5 12.9 2.9 23.3 4 28 1.9 8.9 5.2 22.6 6 25.5 2.7 8.9 8.4 25.1 9.1 26a4 4 0 01.9 2.5 23.72 23.72 0 002 5.5 27.11 27.11 0 012 5.2 1.23 1.23 0 001 1.3c.6 0 1 .6 1 1.4 0 1.6 6.9 15.8 8.1 16.6a7.38 7.38 0 011.4 3.3c.4 1.5 1.1 2.7 1.6 2.7s.9.6.9 1.3 1.6 3.6 3.5 6.3 3.5 5.5 3.5 6.1a1.23 1.23 0 001 1.3 1 1 0 011 1c0 1 3.8 6.9 5.1 8 .3.3 2.3 3 4.4 6s4.1 5.7 4.4 6 3.1 3.6 6.1 7.5c9.7 12.5 34 35.9 49.5 47.8.5.4 2 1.5 3.2 2.5s3.1 2.4 4.3 3.2 2.8 2.1 3.6 2.7a4.22 4.22 0 001.9 1.3c.6 0 6.5 3.9 7.5 5a17.24 17.24 0 003 1.8 34 34 0 017.8 4.9 4.81 4.81 0 002.8 1.3c.8 0 1.4.4 1.4.9s1.2 1.2 2.7 1.6a7.38 7.38 0 013.3 1.4c.7 1.1 15.4 8.1 16.9 8.1a1 1 0 011.1 1 1.23 1.23 0 001.3 1 27.11 27.11 0 015.2 2 27.06 27.06 0 005.1 2 12.66 12.66 0 014 1.5 13.76 13.76 0 004.5 1.5 4.47 4.47 0 012.5.9c.8.8 6 2.5 20.9 6.8 12.6 3.6 12.9 3.7 29 6.3 3.9.6 10.2 1.6 14 2.3 9.4 1.6 63.6 1.6 73 0 3.9-.7 10.2-1.7 14-2.3 12.2-2 16.9-2.9 20.5-3.9 1.9-.6 6.2-1.8 9.5-2.7 10.5-2.9 19-5.7 19.9-6.6a5.28 5.28 0 012.5-.8 13.76 13.76 0 004.5-1.5 12.66 12.66 0 014-1.5 27.06 27.06 0 005.1-2 25 25 0 015.3-2 1.2 1.2 0 001.2-1 1.12 1.12 0 011.2-1c1.4 0 16-7.1 16.8-8.1a7.38 7.38 0 013.3-1.4c1.5-.4 2.7-1.1 2.7-1.6s.6-.9 1.4-.9a4.81 4.81 0 002.8-1.3 34 34 0 017.8-4.9 17.24 17.24 0 003-1.8c1.4-1.4 7.1-5 8-5a1 1 0 001-.8c0-.4 2-2.1 4.4-3.6a76.54 76.54 0 006.3-4.4c1-.9 5.2-4.4 9.3-7.7 9.7-7.7 34-32 41-41 3-3.9 5.7-7.2 6.1-7.5s2.3-3 4.4-6 4.3-6 4.9-6.6a28.86 28.86 0 003.1-4.7c1.1-2 2.3-3.7 2.7-3.7s.8-.6.8-1.3 1.6-3.4 3.5-6.1 3.5-5.5 3.5-6.3.4-1.3.9-1.3 1.2-1.2 1.6-2.7a7.38 7.38 0 011.4-3.3c1.1-.7 8.1-15.4 8.1-16.9a1.1 1.1 0 011-1.1c.6 0 1-.6 1-1.3a27.11 27.11 0 012-5.2 27.06 27.06 0 002-5.1 12.66 12.66 0 011.5-4 14.14 14.14 0 001.5-4.4 4 4 0 01.9-2.5c.5-.6 1.8-4.4 3.1-8.5s2.5-8.6 3-10c.8-2.2 3.3-12.5 6.1-25 1-4.6 2.3-14 3.9-28.5 1.2-10.7 1.2-45.8 0-57-2.1-19.5-2.8-23.9-7.1-42-3.2-13.6-10.3-36.1-12-38a4 4 0 01-.9-2.5 23.72 23.72 0 00-2-5.5 25 25 0 01-2-5.3 1.12 1.12 0 00-1-1.2 1.1 1.1 0 01-1-1.1c0-1.5-7-16.2-8.1-16.9a7.38 7.38 0 01-1.4-3.3c-.4-1.5-1.1-2.7-1.6-2.7s-.9-.6-.9-1.3-1.6-3.6-3.5-6.3-3.5-5.4-3.5-6.1a1.81 1.81 0 00-.7-1.5c-1.2-.5-5.3-6.6-5.3-7.8 0-.5-.3-1-.7-1s-1.9-1.7-3.3-3.8-2.9-4.2-3.5-4.9-1.4-1.8-2-2.5-3.7-4.7-7-8.8l-6-7.5-.6 108.5c-.6 114.3-.7 116.3-5.3 137-3.1 13.6-7.9 29.6-11.1 36.5s-4.5 10.4-4.5 11.4a1 1 0 01-.9 1.1c-.5 0-1.2 1.4-1.6 3s-1 3-1.5 3-1.1 1.3-1.5 3-1 3-1.4 3-1.2 1.2-1.9 2.7a37.58 37.58 0 01-3.2 5.8 47.61 47.61 0 00-2.7 4.5 7 7 0 01-1.2 2c-1 .8-5.1 6.9-5.1 7.5a6.87 6.87 0 01-1.5 2.2c-.9 1-3.2 3.8-5.1 6.3-7.6 9.6-20.4 24-21.6 24-.5 0-2.2 1.5-3.9 3.4s-6.6 6.1-10.9 9.3-8 6.1-8 6.5a1 1 0 01-1 .8c-1 0-6.8 3.7-8 5.1a7 7 0 01-2 1.2c-.8.4-2.8 1.6-4.5 2.7a36.82 36.82 0 01-5.7 3.2c-1.6.7-2.8 1.6-2.8 1.9s-1.3 1-3 1.4-3 1-3 1.5-1.3 1.1-3 1.5-3 1.1-3 1.6a1 1 0 01-1.1.9c-1 0-9 3.3-12.1 5a7.12 7.12 0 01-2.9 1 18 18 0 00-4.2 1.3 107 107 0 01-16.7 5.2 18.5 18.5 0 00-4.5 1.4c-3.3 2.1-41.6 7.1-54.5 7.1s-51.2-5-54.5-7.1a17.08 17.08 0 00-4.5-1.4 107 107 0 01-16.7-5.2 18 18 0 00-4.2-1.3 7.12 7.12 0 01-2.9-1c-3.1-1.7-11.1-5-12.1-5a1 1 0 01-1.1-.9c0-.5-1.3-1.2-3-1.6s-3-1-3-1.5-1.3-1.1-3-1.5-3-1-3-1.5-1.2-1.3-2.7-1.9a36.63 36.63 0 01-5.8-3.1 47.61 47.61 0 00-4.5-2.7 7 7 0 01-2-1.2c-1.1-1.3-7-5.1-7.9-5.1a1.54 1.54 0 01-1.3-.9c-.1-.5-3.4-3.2-7.3-6.2-9-6.8-29.5-27.3-36.4-36.4-2.9-3.9-5.7-7.2-6.2-7.3a1.54 1.54 0 01-.9-1.3c0-1.1-4.2-7.2-5.2-7.7a1.88 1.88 0 01-.8-1.7 5 5 0 00-1.2-2.7 25 25 0 01-4.9-8.1c-.6-1.5-1.5-2.7-1.9-2.7s-1.1-1.3-1.5-3-1-3-1.5-3-1.1-1.3-1.5-3-1.1-3-1.6-3a1 1 0 01-.9-1.1c0-1.2-2.2-6.6-4.6-11.2a13.21 13.21 0 01-1.4-3.9 19.18 19.18 0 00-1.3-4.1c-1.4-3.3-3.4-9.8-6.1-19.7-5.2-19.4-8.1-44.2-7.3-62 .8-16.2 4.9-45.4 6.8-48.5a18.5 18.5 0 001.4-4.5 107 107 0 015.2-16.7 19.18 19.18 0 001.3-4.1 13.21 13.21 0 011.4-3.9c2.4-4.6 4.6-10 4.6-11.2a1 1 0 01.9-1.1c.5 0 1.2-1.4 1.6-3s1-3 1.5-3 1.1-1.4 1.5-3 1-3 1.5-3 1.3-1.2 1.9-2.8a35.87 35.87 0 013.1-5.7c1.1-1.7 2.3-3.7 2.7-4.5a7 7 0 011.2-2c1.3-1.1 5.1-7 5.1-7.9a1.54 1.54 0 01.9-1.3c.5-.2 3.3-3.5 6.2-7.3 6.8-8.9 27.5-29.6 36.5-36.5 3.8-2.9 7.1-5.6 7.2-6.1a1.54 1.54 0 011.3-.9c.9 0 6.8-3.8 7.9-5.1a7 7 0 012-1.2 47.61 47.61 0 004.5-2.7 36.63 36.63 0 015.8-3.1c1.5-.6 2.7-1.5 2.7-1.9s1.4-1.1 3-1.5 3-1 3-1.5 1.4-1.1 3-1.5 3-1.1 3-1.6a1 1 0 011.1-.9c1 0 9-3.3 12.1-5a7.12 7.12 0 012.9-1 15.21 15.21 0 004.2-1.4c4.6-1.9 16.9-5.6 18.8-5.6a3.7 3.7 0 002.3-.7c2-2.1 32.4-6.3 49.6-6.9 18.4-.7 44 2.5 64 8 3 .9 7.8 2.2 10.5 2.9l5 1.4.3 108.4c.3 96.9.1 109.3-1.3 116.4-4.2 20.6-12.5 34-29.7 48-2.6 2.1-13.1 7.6-18.3 9.6-5.7 2.2-19.9 4.9-25.5 4.9s-19.8-2.7-25.5-4.9c-5.1-2-15.7-7.5-18.4-9.6a201.56 201.56 0 01-16.6-16.7c-2-2.5-8.4-14.9-10.3-20.3-1.2-3.2-3.2-12.7-3.9-18.8l-.5-3.7h-74.8l.1 6.7c.1 12.7 4.4 34.9 8 41.5a8.76 8.76 0 01.9 2.8c0 1.3 2.9 7.9 7.2 16.5 3.4 6.8 12.9 21.5 16.7 26 3.4 3.9 18.8 19.3 22.6 22.6 4.4 3.7 16.9 11.9 18.3 11.9.7 0 1.2.4 1.2.9 0 1.1 20.5 11.1 22.9 11.1a8.48 8.48 0 012.9.9c4.5 2.4 15.1 5 29.2 7.1 7.9 1.1 33.6 1.2 40.5 0 14.8-2.4 24.5-4.8 28.7-7.1a8.76 8.76 0 012.8-.9c3 0 20.6-9 31-15.8 10-6.6 11.8-8 23-19.2s12.6-13 19.2-23c6.8-10.4 15.8-28 15.8-31a8.76 8.76 0 01.9-2.8c2.3-4.2 4.7-13.9 7.1-28.7.5-2.8.9-67.2.9-143.3.1-122.2-.1-138.2-1.4-138.2-.8 0-1.5-.4-1.5-.9s-1.2-1.2-2.7-1.6a7.38 7.38 0 01-3.3-1.4c-.8-1-15.4-8.1-16.8-8.1a1.2 1.2 0 01-1.2-1 1.12 1.12 0 00-1.2-1 25 25 0 01-5.3-2 23.72 23.72 0 00-5.5-2 4 4 0 01-2.5-.9c-.6-.5-5.9-2.5-12-4.5-14.2-4.7-15.3-5.1-26-7.6-15.1-3.5-17.7-4-25.8-5a52.05 52.05 0 01-8.7-1.5c-.4-.3-6.3-.7-13.1-1S309.3.24 307.9 0s-10.6 0-20.6.44z" fill="#fff" data-name="Layer 1"/></g></svg>